# xmcd
#
# Track frame offsets: 
#        150
#        13850
#        28035
#        39007
#        52657
#        65517
#        79897
#        91457
#        102917
#        116585
#        130167
#        142660
#        157045
#        169375
#        183337
#        196057
#        212605
#
# Disc length: 3028 seconds
#
# Revision: 3
# Processed by: cddbd v1.5.2PL0 Copyright (c) Steve Scherf et al.
# Submitted via: ExactAudioCopy v0.99pb4
#
DISCID=da0bd211
DTITLE=Gary Stewart - Gary's Greatest
DYEAR=1991
DGENRE=Country
TTITLE0=Your Place Or Mine
TTITLE1=Whiskey Trip
TTITLE2=Brand New Whiskey
TTITLE3=Out Of Hand
TTITLE4=Ramblin' Man
TTITLE5=In Some Room Above The Street
TTITLE6=Ten Years Of This
TTITLE7=Let's Go Jukin'
TTITLE8=Little Junior
TTITLE9=Drinkin' Thing
TTITLE10=Flat Natural Born Good-Timin' Man
TTITLE11=Stone Wall (Around Your Heart)
TTITLE12=She's Got A Drinking Problem
TTITLE13=Single Again
TTITLE14=She's Actin' Single (I'm Drinkin' Doubles)
TTITLE15=An Empty Glass
TTITLE16=Quits
EXTD=
EXTT0=
EXTT1=
EXTT2=
EXTT3=
EXTT4=
EXTT5=
EXTT6=
EXTT7=
EXTT8=
EXTT9=
EXTT10=
EXTT11=
EXTT12=
EXTT13=
EXTT14=
EXTT15=
EXTT16=
PLAYORDER=
